<svg width="261" height="20" viewBox="0 0 261 20" fill="none" xmlns="http://www.w3.org/2000/svg">
<path d="M28.24 15L31.048 6.36H32.854L35.662 15H34.36L31.774 7.116H32.098L29.542 15H28.24ZM29.698 13.05V11.874H34.21V13.05H29.698ZM39.4084 18.06C39.0604 18.06 38.7224 18.006 38.3944 17.898C38.0704 17.79 37.7744 17.63 37.5064 17.418C37.2384 17.21 37.0164 16.952 36.8404 16.644L37.9984 16.056C38.1384 16.332 38.3384 16.534 38.5984 16.662C38.8584 16.79 39.1324 16.854 39.4204 16.854C39.7764 16.854 40.0804 16.79 40.3324 16.662C40.5844 16.538 40.7744 16.35 40.9024 16.098C41.0344 15.846 41.0984 15.534 41.0944 15.162V13.35H41.2444V8.52H42.3544V15.174C42.3544 15.346 42.3484 15.51 42.3364 15.666C42.3244 15.822 42.3024 15.978 42.2704 16.134C42.1784 16.57 42.0024 16.93 41.7424 17.214C41.4864 17.498 41.1584 17.71 40.7584 17.85C40.3624 17.99 39.9124 18.06 39.4084 18.06ZM39.3124 15.18C38.7084 15.18 38.1864 15.03 37.7464 14.73C37.3104 14.43 36.9724 14.022 36.7324 13.506C36.4964 12.986 36.3784 12.402 36.3784 11.754C36.3784 11.102 36.4984 10.52 36.7384 10.008C36.9784 9.492 37.3184 9.086 37.7584 8.79C38.2024 8.49 38.7284 8.34 39.3364 8.34C39.9484 8.34 40.4624 8.49 40.8784 8.79C41.2984 9.086 41.6144 9.492 41.8264 10.008C42.0424 10.524 42.1504 11.106 42.1504 11.754C42.1504 12.402 42.0424 12.984 41.8264 13.5C41.6104 14.016 41.2924 14.426 40.8724 14.73C40.4524 15.03 39.9324 15.18 39.3124 15.18ZM39.4864 14.046C39.8984 14.046 40.2344 13.948 40.4944 13.752C40.7544 13.556 40.9444 13.286 41.0644 12.942C41.1844 12.598 41.2444 12.202 41.2444 11.754C41.2444 11.306 41.1824 10.91 41.0584 10.566C40.9384 10.222 40.7504 9.954 40.4944 9.762C40.2424 9.57 39.9204 9.474 39.5284 9.474C39.1124 9.474 38.7704 9.576 38.5024 9.78C38.2344 9.984 38.0344 10.258 37.9024 10.602C37.7744 10.946 37.7104 11.33 37.7104 11.754C37.7104 12.182 37.7744 12.57 37.9024 12.918C38.0344 13.262 38.2304 13.536 38.4904 13.74C38.7544 13.944 39.0864 14.046 39.4864 14.046ZM44.0392 15V8.52H45.1552V10.092L44.9992 9.888C45.0792 9.68 45.1832 9.49 45.3112 9.318C45.4392 9.142 45.5872 8.998 45.7552 8.886C45.9192 8.766 46.1012 8.674 46.3012 8.61C46.5052 8.542 46.7132 8.502 46.9252 8.49C47.1372 8.474 47.3412 8.484 47.5372 8.52V9.696C47.3252 9.64 47.0892 9.624 46.8292 9.648C46.5732 9.672 46.3372 9.754 46.1212 9.894C45.9172 10.026 45.7552 10.186 45.6352 10.374C45.5192 10.562 45.4352 10.772 45.3832 11.004C45.3312 11.232 45.3052 11.474 45.3052 11.73V15H44.0392ZM51.4367 15.18C50.7927 15.18 50.2267 15.04 49.7387 14.76C49.2547 14.476 48.8767 14.082 48.6047 13.578C48.3367 13.07 48.2027 12.482 48.2027 11.814C48.2027 11.106 48.3347 10.492 48.5987 9.972C48.8667 9.452 49.2387 9.05 49.7147 8.766C50.1907 8.482 50.7447 8.34 51.3767 8.34C52.0367 8.34 52.5987 8.494 53.0627 8.802C53.5267 9.106 53.8727 9.54 54.1007 10.104C54.3327 10.668 54.4247 11.338 54.3767 12.114H53.1227V11.658C53.1147 10.906 52.9707 10.35 52.6907 9.99C52.4147 9.63 51.9927 9.45 51.4247 9.45C50.7967 9.45 50.3247 9.648 50.0087 10.044C49.6927 10.44 49.5347 11.012 49.5347 11.76C49.5347 12.472 49.6927 13.024 50.0087 13.416C50.3247 13.804 50.7807 13.998 51.3767 13.998C51.7687 13.998 52.1067 13.91 52.3907 13.734C52.6787 13.554 52.9027 13.298 53.0627 12.966L54.2927 13.356C54.0407 13.936 53.6587 14.386 53.1467 14.706C52.6347 15.022 52.0647 15.18 51.4367 15.18ZM49.1267 12.114V11.136H53.7527V12.114H49.1267ZM58.5968 15.18C57.9528 15.18 57.3868 15.04 56.8988 14.76C56.4148 14.476 56.0368 14.082 55.7648 13.578C55.4968 13.07 55.3628 12.482 55.3628 11.814C55.3628 11.106 55.4948 10.492 55.7588 9.972C56.0268 9.452 56.3988 9.05 56.8748 8.766C57.3508 8.482 57.9048 8.34 58.5368 8.34C59.1968 8.34 59.7588 8.494 60.2228 8.802C60.6868 9.106 61.0328 9.54 61.2608 10.104C61.4928 10.668 61.5848 11.338 61.5368 12.114H60.2828V11.658C60.2748 10.906 60.1308 10.35 59.8508 9.99C59.5748 9.63 59.1528 9.45 58.5848 9.45C57.9568 9.45 57.4848 9.648 57.1688 10.044C56.8528 10.44 56.6948 11.012 56.6948 11.76C56.6948 12.472 56.8528 13.024 57.1688 13.416C57.4848 13.804 57.9408 13.998 58.5368 13.998C58.9288 13.998 59.2668 13.91 59.5508 13.734C59.8388 13.554 60.0628 13.298 60.2228 12.966L61.4528 13.356C61.2008 13.936 60.8188 14.386 60.3068 14.706C59.7948 15.022 59.2248 15.18 58.5968 15.18ZM56.2868 12.114V11.136H60.9128V12.114H56.2868ZM66.6653 15L64.6853 8.514L65.9273 8.52L67.2833 12.966L68.6513 8.52H69.7313L71.0993 12.966L72.4553 8.52H73.6913L71.7113 15H70.7033L69.1913 10.308L67.6733 15H66.6653ZM74.8858 7.458V6.24H76.1398V7.458H74.8858ZM74.8858 15V8.52H76.1398V15H74.8858ZM81.6496 15C81.2416 15.08 80.8416 15.114 80.4496 15.102C80.0576 15.09 79.7076 15.014 79.3996 14.874C79.0916 14.734 78.8596 14.514 78.7036 14.214C78.5636 13.946 78.4876 13.674 78.4756 13.398C78.4676 13.118 78.4636 12.802 78.4636 12.45V6.72H79.7236V12.39C79.7236 12.65 79.7256 12.876 79.7296 13.068C79.7376 13.26 79.7796 13.422 79.8556 13.554C79.9996 13.802 80.2276 13.944 80.5396 13.98C80.8556 14.012 81.2256 13.998 81.6496 13.938V15ZM77.2216 9.528V8.52H81.6496V9.528H77.2216ZM87.5638 15V11.814C87.5638 11.562 87.5418 11.304 87.4978 11.04C87.4578 10.772 87.3778 10.524 87.2578 10.296C87.1418 10.068 86.9758 9.884 86.7598 9.744C86.5478 9.604 86.2698 9.534 85.9258 9.534C85.7018 9.534 85.4898 9.572 85.2898 9.648C85.0898 9.72 84.9138 9.838 84.7618 10.002C84.6138 10.166 84.4958 10.382 84.4078 10.65C84.3238 10.918 84.2818 11.244 84.2818 11.628L83.5018 11.334C83.5018 10.746 83.6118 10.228 83.8318 9.78C84.0518 9.328 84.3678 8.976 84.7798 8.724C85.1918 8.472 85.6898 8.346 86.2738 8.346C86.7218 8.346 87.0978 8.418 87.4018 8.562C87.7058 8.706 87.9518 8.896 88.1398 9.132C88.3318 9.364 88.4778 9.618 88.5778 9.894C88.6778 10.17 88.7458 10.44 88.7818 10.704C88.8178 10.968 88.8358 11.2 88.8358 11.4V15H87.5638ZM83.0098 15V6.36H84.1318V11.022H84.2818V15H83.0098ZM92.9209 7.458V6.24H94.1749V7.458H92.9209ZM92.9209 15V8.52H94.1749V15H92.9209ZM98.5507 15.18C97.9467 15.18 97.4247 15.03 96.9847 14.73C96.5487 14.43 96.2107 14.022 95.9707 13.506C95.7347 12.986 95.6167 12.402 95.6167 11.754C95.6167 11.102 95.7367 10.52 95.9767 10.008C96.2167 9.492 96.5567 9.086 96.9967 8.79C97.4407 8.49 97.9667 8.34 98.5747 8.34C99.1867 8.34 99.7007 8.49 100.117 8.79C100.537 9.086 100.853 9.492 101.065 10.008C101.281 10.524 101.389 11.106 101.389 11.754C101.389 12.402 101.281 12.984 101.065 13.5C100.849 14.016 100.531 14.426 100.111 14.73C99.6907 15.03 99.1707 15.18 98.5507 15.18ZM98.7247 14.046C99.1367 14.046 99.4727 13.948 99.7327 13.752C99.9927 13.556 100.183 13.286 100.303 12.942C100.423 12.598 100.483 12.202 100.483 11.754C100.483 11.306 100.421 10.91 100.297 10.566C100.177 10.222 99.9887 9.954 99.7327 9.762C99.4807 9.57 99.1587 9.474 98.7667 9.474C98.3507 9.474 98.0087 9.576 97.7407 9.78C97.4727 9.984 97.2727 10.258 97.1407 10.602C97.0127 10.946 96.9487 11.33 96.9487 11.754C96.9487 12.182 97.0127 12.57 97.1407 12.918C97.2727 13.262 97.4687 13.536 97.7287 13.74C97.9927 13.944 98.3247 14.046 98.7247 14.046ZM100.483 15V10.338H100.339V6.36H101.599V15H100.483ZM106.152 15.18C105.508 15.18 104.942 15.04 104.454 14.76C103.97 14.476 103.592 14.082 103.319 13.578C103.052 13.07 102.918 12.482 102.918 11.814C102.918 11.106 103.05 10.492 103.314 9.972C103.582 9.452 103.954 9.05 104.43 8.766C104.906 8.482 105.46 8.34 106.092 8.34C106.752 8.34 107.314 8.494 107.778 8.802C108.242 9.106 108.588 9.54 108.816 10.104C109.048 10.668 109.14 11.338 109.092 12.114H107.838V11.658C107.83 10.906 107.686 10.35 107.406 9.99C107.13 9.63 106.708 9.45 106.14 9.45C105.512 9.45 105.04 9.648 104.724 10.044C104.408 10.44 104.25 11.012 104.25 11.76C104.25 12.472 104.408 13.024 104.724 13.416C105.04 13.804 105.496 13.998 106.092 13.998C106.484 13.998 106.822 13.91 107.106 13.734C107.394 13.554 107.618 13.298 107.778 12.966L109.008 13.356C108.756 13.936 108.374 14.386 107.862 14.706C107.35 15.022 106.78 15.18 106.152 15.18ZM103.842 12.114V11.136H108.467V12.114H103.842ZM112.15 15.18C111.67 15.18 111.268 15.092 110.944 14.916C110.62 14.736 110.374 14.5 110.206 14.208C110.042 13.912 109.96 13.588 109.96 13.236C109.96 12.908 110.018 12.62 110.134 12.372C110.25 12.124 110.422 11.914 110.65 11.742C110.878 11.566 111.158 11.424 111.49 11.316C111.778 11.232 112.104 11.158 112.468 11.094C112.832 11.03 113.214 10.97 113.614 10.914C114.018 10.858 114.418 10.802 114.814 10.746L114.358 10.998C114.366 10.49 114.258 10.114 114.034 9.87C113.814 9.622 113.434 9.498 112.894 9.498C112.554 9.498 112.242 9.578 111.958 9.738C111.674 9.894 111.476 10.154 111.364 10.518L110.194 10.158C110.354 9.602 110.658 9.16 111.106 8.832C111.558 8.504 112.158 8.34 112.906 8.34C113.486 8.34 113.99 8.44 114.418 8.64C114.85 8.836 115.166 9.148 115.366 9.576C115.47 9.788 115.534 10.012 115.558 10.248C115.582 10.484 115.594 10.738 115.594 11.01V15H114.484V13.518L114.7 13.71C114.432 14.206 114.09 14.576 113.674 14.82C113.262 15.06 112.754 15.18 112.15 15.18ZM112.372 14.154C112.728 14.154 113.034 14.092 113.29 13.968C113.546 13.84 113.752 13.678 113.908 13.482C114.064 13.286 114.166 13.082 114.214 12.87C114.282 12.678 114.32 12.462 114.328 12.222C114.34 11.982 114.346 11.79 114.346 11.646L114.754 11.796C114.358 11.856 113.998 11.91 113.674 11.958C113.35 12.006 113.056 12.054 112.792 12.102C112.532 12.146 112.3 12.2 112.096 12.264C111.924 12.324 111.77 12.396 111.634 12.48C111.502 12.564 111.396 12.666 111.316 12.786C111.24 12.906 111.202 13.052 111.202 13.224C111.202 13.392 111.244 13.548 111.328 13.692C111.412 13.832 111.54 13.944 111.712 14.028C111.884 14.112 112.104 14.154 112.372 14.154ZM120.861 15C120.453 15.08 120.053 15.114 119.661 15.102C119.269 15.09 118.919 15.014 118.611 14.874C118.303 14.734 118.071 14.514 117.915 14.214C117.775 13.946 117.699 13.674 117.687 13.398C117.679 13.118 117.675 12.802 117.675 12.45V6.72H118.935V12.39C118.935 12.65 118.937 12.876 118.941 13.068C118.949 13.26 118.991 13.422 119.067 13.554C119.211 13.802 119.439 13.944 119.751 13.98C120.067 14.012 120.437 13.998 120.861 13.938V15ZM116.433 9.528V8.52H120.861V9.528H116.433ZM124.808 15.18C124.164 15.18 123.598 15.04 123.11 14.76C122.626 14.476 122.248 14.082 121.976 13.578C121.708 13.07 121.574 12.482 121.574 11.814C121.574 11.106 121.706 10.492 121.97 9.972C122.238 9.452 122.61 9.05 123.086 8.766C123.562 8.482 124.116 8.34 124.748 8.34C125.408 8.34 125.97 8.494 126.434 8.802C126.898 9.106 127.244 9.54 127.472 10.104C127.704 10.668 127.796 11.338 127.748 12.114H126.494V11.658C126.486 10.906 126.342 10.35 126.062 9.99C125.786 9.63 125.364 9.45 124.796 9.45C124.168 9.45 123.696 9.648 123.38 10.044C123.064 10.44 122.906 11.012 122.906 11.76C122.906 12.472 123.064 13.024 123.38 13.416C123.696 13.804 124.152 13.998 124.748 13.998C125.14 13.998 125.478 13.91 125.762 13.734C126.05 13.554 126.274 13.298 126.434 12.966L127.664 13.356C127.412 13.936 127.03 14.386 126.518 14.706C126.006 15.022 125.436 15.18 124.808 15.18ZM122.498 12.114V11.136H127.124V12.114H122.498ZM129.214 9.24L129.292 8.682C129.464 8.694 129.598 8.662 129.694 8.586C129.79 8.51 129.854 8.404 129.886 8.268C129.918 8.132 129.924 7.978 129.904 7.806H129.214V6.36H130.54V7.926C130.54 8.398 130.426 8.754 130.198 8.994C129.974 9.234 129.646 9.316 129.214 9.24ZM133.775 15.174C132.987 15.174 132.345 15 131.849 14.652C131.353 14.304 131.049 13.814 130.937 13.182L132.221 12.984C132.301 13.32 132.485 13.586 132.773 13.782C133.065 13.974 133.427 14.07 133.859 14.07C134.251 14.07 134.557 13.99 134.777 13.83C135.001 13.67 135.113 13.45 135.113 13.17C135.113 13.006 135.073 12.874 134.993 12.774C134.917 12.67 134.755 12.572 134.507 12.48C134.259 12.388 133.881 12.274 133.373 12.138C132.817 11.994 132.375 11.84 132.047 11.676C131.723 11.508 131.491 11.314 131.351 11.094C131.215 10.87 131.147 10.6 131.147 10.284C131.147 9.892 131.251 9.55 131.459 9.258C131.667 8.966 131.959 8.74 132.335 8.58C132.715 8.42 133.159 8.34 133.667 8.34C134.163 8.34 134.605 8.418 134.993 8.574C135.381 8.73 135.695 8.952 135.935 9.24C136.175 9.524 136.319 9.858 136.367 10.242L135.083 10.476C135.039 10.164 134.893 9.918 134.645 9.738C134.397 9.558 134.075 9.46 133.679 9.444C133.299 9.428 132.991 9.492 132.755 9.636C132.519 9.776 132.401 9.97 132.401 10.218C132.401 10.362 132.445 10.484 132.533 10.584C132.625 10.684 132.801 10.78 133.061 10.872C133.321 10.964 133.705 11.074 134.213 11.202C134.757 11.342 135.189 11.498 135.509 11.67C135.829 11.838 136.057 12.04 136.193 12.276C136.333 12.508 136.403 12.79 136.403 13.122C136.403 13.762 136.169 14.264 135.701 14.628C135.237 14.992 134.595 15.174 133.775 15.174ZM143.841 15C143.433 15.08 143.033 15.114 142.641 15.102C142.249 15.09 141.899 15.014 141.591 14.874C141.283 14.734 141.051 14.514 140.895 14.214C140.755 13.946 140.679 13.674 140.667 13.398C140.659 13.118 140.655 12.802 140.655 12.45V6.72H141.915V12.39C141.915 12.65 141.917 12.876 141.921 13.068C141.929 13.26 141.971 13.422 142.047 13.554C142.191 13.802 142.419 13.944 142.731 13.98C143.047 14.012 143.417 13.998 143.841 13.938V15ZM139.413 9.528V8.52H143.841V9.528H139.413ZM147.788 15.18C147.144 15.18 146.578 15.04 146.09 14.76C145.606 14.476 145.228 14.082 144.956 13.578C144.688 13.07 144.554 12.482 144.554 11.814C144.554 11.106 144.686 10.492 144.95 9.972C145.218 9.452 145.59 9.05 146.066 8.766C146.542 8.482 147.096 8.34 147.728 8.34C148.388 8.34 148.95 8.494 149.414 8.802C149.878 9.106 150.224 9.54 150.452 10.104C150.684 10.668 150.776 11.338 150.728 12.114H149.474V11.658C149.466 10.906 149.322 10.35 149.042 9.99C148.766 9.63 148.344 9.45 147.776 9.45C147.148 9.45 146.676 9.648 146.36 10.044C146.044 10.44 145.886 11.012 145.886 11.76C145.886 12.472 146.044 13.024 146.36 13.416C146.676 13.804 147.132 13.998 147.728 13.998C148.12 13.998 148.458 13.91 148.742 13.734C149.03 13.554 149.254 13.298 149.414 12.966L150.644 13.356C150.392 13.936 150.01 14.386 149.498 14.706C148.986 15.022 148.416 15.18 147.788 15.18ZM145.478 12.114V11.136H150.104V12.114H145.478ZM152.074 15V8.52H153.19V10.092L153.034 9.888C153.114 9.68 153.218 9.49 153.346 9.318C153.474 9.142 153.622 8.998 153.79 8.886C153.954 8.766 154.136 8.674 154.336 8.61C154.54 8.542 154.748 8.502 154.96 8.49C155.172 8.474 155.376 8.484 155.572 8.52V9.696C155.36 9.64 155.124 9.624 154.864 9.648C154.608 9.672 154.372 9.754 154.156 9.894C153.952 10.026 153.79 10.186 153.67 10.374C153.554 10.562 153.47 10.772 153.418 11.004C153.366 11.232 153.34 11.474 153.34 11.73V15H152.074ZM164.479 15L164.485 10.962C164.485 10.494 164.365 10.13 164.125 9.87C163.885 9.606 163.569 9.474 163.177 9.474C162.937 9.474 162.717 9.53 162.517 9.642C162.321 9.75 162.161 9.914 162.037 10.134C161.917 10.35 161.857 10.622 161.857 10.95L161.251 10.644C161.243 10.188 161.339 9.788 161.539 9.444C161.743 9.1 162.019 8.834 162.367 8.646C162.715 8.454 163.105 8.358 163.537 8.358C164.237 8.358 164.779 8.568 165.163 8.988C165.547 9.408 165.739 9.966 165.739 10.662L165.733 15H164.479ZM156.709 15V8.52H157.825V10.392H157.969V15H156.709ZM160.597 15L160.603 10.986C160.603 10.514 160.483 10.144 160.243 9.876C160.007 9.608 159.689 9.474 159.289 9.474C158.893 9.474 158.573 9.61 158.329 9.882C158.089 10.154 157.969 10.51 157.969 10.95L157.369 10.566C157.369 10.142 157.471 9.764 157.675 9.432C157.879 9.1 158.155 8.838 158.503 8.646C158.851 8.454 159.245 8.358 159.685 8.358C160.145 8.358 160.537 8.456 160.861 8.652C161.185 8.844 161.431 9.114 161.599 9.462C161.771 9.81 161.857 10.214 161.857 10.674L161.851 15H160.597ZM169.775 15.174C168.987 15.174 168.345 15 167.849 14.652C167.353 14.304 167.049 13.814 166.937 13.182L168.221 12.984C168.301 13.32 168.485 13.586 168.773 13.782C169.065 13.974 169.427 14.07 169.859 14.07C170.251 14.07 170.557 13.99 170.777 13.83C171.001 13.67 171.113 13.45 171.113 13.17C171.113 13.006 171.073 12.874 170.993 12.774C170.917 12.67 170.755 12.572 170.507 12.48C170.259 12.388 169.881 12.274 169.373 12.138C168.817 11.994 168.375 11.84 168.047 11.676C167.723 11.508 167.491 11.314 167.351 11.094C167.215 10.87 167.147 10.6 167.147 10.284C167.147 9.892 167.251 9.55 167.459 9.258C167.667 8.966 167.959 8.74 168.335 8.58C168.715 8.42 169.159 8.34 169.667 8.34C170.163 8.34 170.605 8.418 170.993 8.574C171.381 8.73 171.695 8.952 171.935 9.24C172.175 9.524 172.319 9.858 172.367 10.242L171.083 10.476C171.039 10.164 170.893 9.918 170.645 9.738C170.397 9.558 170.075 9.46 169.679 9.444C169.299 9.428 168.991 9.492 168.755 9.636C168.519 9.776 168.401 9.97 168.401 10.218C168.401 10.362 168.445 10.484 168.533 10.584C168.625 10.684 168.801 10.78 169.061 10.872C169.321 10.964 169.705 11.074 170.213 11.202C170.757 11.342 171.189 11.498 171.509 11.67C171.829 11.838 172.057 12.04 172.193 12.276C172.333 12.508 172.403 12.79 172.403 13.122C172.403 13.762 172.169 14.264 171.701 14.628C171.237 14.992 170.595 15.174 169.775 15.174ZM177.963 15.18C177.483 15.18 177.081 15.092 176.757 14.916C176.433 14.736 176.187 14.5 176.019 14.208C175.855 13.912 175.773 13.588 175.773 13.236C175.773 12.908 175.831 12.62 175.947 12.372C176.063 12.124 176.235 11.914 176.463 11.742C176.691 11.566 176.971 11.424 177.303 11.316C177.591 11.232 177.917 11.158 178.281 11.094C178.645 11.03 179.027 10.97 179.427 10.914C179.831 10.858 180.231 10.802 180.627 10.746L180.171 10.998C180.179 10.49 180.071 10.114 179.847 9.87C179.627 9.622 179.247 9.498 178.707 9.498C178.367 9.498 178.055 9.578 177.771 9.738C177.487 9.894 177.289 10.154 177.177 10.518L176.007 10.158C176.167 9.602 176.471 9.16 176.919 8.832C177.371 8.504 177.971 8.34 178.719 8.34C179.299 8.34 179.803 8.44 180.231 8.64C180.663 8.836 180.979 9.148 181.179 9.576C181.283 9.788 181.347 10.012 181.371 10.248C181.395 10.484 181.407 10.738 181.407 11.01V15H180.297V13.518L180.513 13.71C180.245 14.206 179.903 14.576 179.487 14.82C179.075 15.06 178.567 15.18 177.963 15.18ZM178.185 14.154C178.541 14.154 178.847 14.092 179.103 13.968C179.359 13.84 179.565 13.678 179.721 13.482C179.877 13.286 179.979 13.082 180.027 12.87C180.095 12.678 180.133 12.462 180.141 12.222C180.153 11.982 180.159 11.79 180.159 11.646L180.567 11.796C180.171 11.856 179.811 11.91 179.487 11.958C179.163 12.006 178.869 12.054 178.605 12.102C178.345 12.146 178.113 12.2 177.909 12.264C177.737 12.324 177.583 12.396 177.447 12.48C177.315 12.564 177.209 12.666 177.129 12.786C177.053 12.906 177.015 13.052 177.015 13.224C177.015 13.392 177.057 13.548 177.141 13.692C177.225 13.832 177.353 13.944 177.525 14.028C177.697 14.112 177.917 14.154 178.185 14.154ZM187.513 15V11.814C187.513 11.562 187.491 11.304 187.447 11.04C187.407 10.772 187.327 10.524 187.207 10.296C187.091 10.068 186.925 9.884 186.709 9.744C186.497 9.604 186.219 9.534 185.875 9.534C185.651 9.534 185.439 9.572 185.239 9.648C185.039 9.72 184.863 9.838 184.711 10.002C184.563 10.166 184.445 10.382 184.357 10.65C184.273 10.918 184.231 11.244 184.231 11.628L183.451 11.334C183.451 10.746 183.561 10.228 183.781 9.78C184.001 9.328 184.317 8.976 184.729 8.724C185.141 8.472 185.639 8.346 186.223 8.346C186.671 8.346 187.047 8.418 187.351 8.562C187.655 8.706 187.901 8.896 188.089 9.132C188.281 9.364 188.427 9.618 188.527 9.894C188.627 10.17 188.695 10.44 188.731 10.704C188.767 10.968 188.785 11.2 188.785 11.4V15H187.513ZM182.959 15V8.52H184.081V10.392H184.231V15H182.959ZM192.84 15.18C192.236 15.18 191.714 15.03 191.274 14.73C190.838 14.43 190.5 14.022 190.26 13.506C190.024 12.986 189.906 12.402 189.906 11.754C189.906 11.102 190.026 10.52 190.266 10.008C190.506 9.492 190.846 9.086 191.286 8.79C191.73 8.49 192.256 8.34 192.864 8.34C193.476 8.34 193.99 8.49 194.406 8.79C194.826 9.086 195.142 9.492 195.354 10.008C195.57 10.524 195.678 11.106 195.678 11.754C195.678 12.402 195.57 12.984 195.354 13.5C195.138 14.016 194.82 14.426 194.4 14.73C193.98 15.03 193.46 15.18 192.84 15.18ZM193.014 14.046C193.426 14.046 193.762 13.948 194.022 13.752C194.282 13.556 194.472 13.286 194.592 12.942C194.712 12.598 194.772 12.202 194.772 11.754C194.772 11.306 194.71 10.91 194.586 10.566C194.466 10.222 194.278 9.954 194.022 9.762C193.77 9.57 193.448 9.474 193.056 9.474C192.64 9.474 192.298 9.576 192.03 9.78C191.762 9.984 191.562 10.258 191.43 10.602C191.302 10.946 191.238 11.33 191.238 11.754C191.238 12.182 191.302 12.57 191.43 12.918C191.562 13.262 191.758 13.536 192.018 13.74C192.282 13.944 192.614 14.046 193.014 14.046ZM194.772 15V10.338H194.628V6.36H195.888V15H194.772ZM202.741 15.18C202.077 15.18 201.513 15.032 201.049 14.736C200.585 14.44 200.229 14.034 199.981 13.518C199.737 13.002 199.613 12.416 199.609 11.76C199.613 11.092 199.741 10.502 199.993 9.99C200.245 9.474 200.605 9.07 201.073 8.778C201.541 8.486 202.103 8.34 202.759 8.34C203.467 8.34 204.071 8.516 204.571 8.868C205.075 9.22 205.407 9.702 205.567 10.314L204.319 10.674C204.195 10.31 203.991 10.028 203.707 9.828C203.427 9.624 203.105 9.522 202.741 9.522C202.329 9.522 201.991 9.62 201.727 9.816C201.463 10.008 201.267 10.272 201.139 10.608C201.011 10.944 200.945 11.328 200.941 11.76C200.945 12.428 201.097 12.968 201.397 13.38C201.701 13.792 202.149 13.998 202.741 13.998C203.145 13.998 203.471 13.906 203.719 13.722C203.971 13.534 204.163 13.266 204.295 12.918L205.567 13.218C205.355 13.85 205.005 14.336 204.517 14.676C204.029 15.012 203.437 15.18 202.741 15.18ZM209.427 15.18C208.779 15.18 208.217 15.034 207.741 14.742C207.265 14.45 206.897 14.048 206.637 13.536C206.381 13.02 206.253 12.426 206.253 11.754C206.253 11.078 206.385 10.484 206.649 9.972C206.913 9.456 207.283 9.056 207.759 8.772C208.235 8.484 208.791 8.34 209.427 8.34C210.075 8.34 210.637 8.486 211.113 8.778C211.589 9.07 211.957 9.472 212.217 9.984C212.477 10.496 212.607 11.086 212.607 11.754C212.607 12.43 212.475 13.026 212.211 13.542C211.951 14.054 211.583 14.456 211.107 14.748C210.631 15.036 210.071 15.18 209.427 15.18ZM209.427 13.998C210.047 13.998 210.509 13.79 210.813 13.374C211.121 12.954 211.275 12.414 211.275 11.754C211.275 11.078 211.119 10.538 210.807 10.134C210.499 9.726 210.039 9.522 209.427 9.522C209.007 9.522 208.661 9.618 208.389 9.81C208.117 9.998 207.915 10.26 207.783 10.596C207.651 10.928 207.585 11.314 207.585 11.754C207.585 12.434 207.741 12.978 208.053 13.386C208.365 13.794 208.823 13.998 209.427 13.998ZM218.474 15V11.814C218.474 11.562 218.452 11.304 218.408 11.04C218.368 10.772 218.288 10.524 218.168 10.296C218.052 10.068 217.886 9.884 217.67 9.744C217.458 9.604 217.18 9.534 216.836 9.534C216.612 9.534 216.4 9.572 216.2 9.648C216 9.72 215.824 9.838 215.672 10.002C215.524 10.166 215.406 10.382 215.318 10.65C215.234 10.918 215.192 11.244 215.192 11.628L214.412 11.334C214.412 10.746 214.522 10.228 214.742 9.78C214.962 9.328 215.278 8.976 215.69 8.724C216.102 8.472 216.6 8.346 217.184 8.346C217.632 8.346 218.008 8.418 218.312 8.562C218.616 8.706 218.862 8.896 219.05 9.132C219.242 9.364 219.388 9.618 219.488 9.894C219.588 10.17 219.656 10.44 219.692 10.704C219.728 10.968 219.746 11.2 219.746 11.4V15H218.474ZM213.92 15V8.52H215.042V10.392H215.192V15H213.92ZM223.801 15.18C223.197 15.18 222.675 15.03 222.235 14.73C221.799 14.43 221.461 14.022 221.221 13.506C220.985 12.986 220.867 12.402 220.867 11.754C220.867 11.102 220.987 10.52 221.227 10.008C221.467 9.492 221.807 9.086 222.247 8.79C222.691 8.49 223.217 8.34 223.825 8.34C224.437 8.34 224.951 8.49 225.367 8.79C225.787 9.086 226.103 9.492 226.315 10.008C226.531 10.524 226.639 11.106 226.639 11.754C226.639 12.402 226.531 12.984 226.315 13.5C226.099 14.016 225.781 14.426 225.361 14.73C224.941 15.03 224.421 15.18 223.801 15.18ZM223.975 14.046C224.387 14.046 224.723 13.948 224.983 13.752C225.243 13.556 225.433 13.286 225.553 12.942C225.673 12.598 225.733 12.202 225.733 11.754C225.733 11.306 225.671 10.91 225.547 10.566C225.427 10.222 225.239 9.954 224.983 9.762C224.731 9.57 224.409 9.474 224.017 9.474C223.601 9.474 223.259 9.576 222.991 9.78C222.723 9.984 222.523 10.258 222.391 10.602C222.263 10.946 222.199 11.33 222.199 11.754C222.199 12.182 222.263 12.57 222.391 12.918C222.523 13.262 222.719 13.536 222.979 13.74C223.243 13.944 223.575 14.046 223.975 14.046ZM225.733 15V10.338H225.589V6.36H226.849V15H225.733ZM228.648 7.458V6.24H229.902V7.458H228.648ZM228.648 15V8.52H229.902V15H228.648ZM235.411 15C235.003 15.08 234.603 15.114 234.211 15.102C233.819 15.09 233.469 15.014 233.161 14.874C232.853 14.734 232.621 14.514 232.465 14.214C232.325 13.946 232.249 13.674 232.237 13.398C232.229 13.118 232.225 12.802 232.225 12.45V6.72H233.485V12.39C233.485 12.65 233.487 12.876 233.491 13.068C233.499 13.26 233.541 13.422 233.617 13.554C233.761 13.802 233.989 13.944 234.301 13.98C234.617 14.012 234.987 13.998 235.411 13.938V15ZM230.983 9.528V8.52H235.411V9.528H230.983ZM236.898 7.458V6.24H238.152V7.458H236.898ZM236.898 15V8.52H238.152V15H236.898ZM242.767 15.18C242.119 15.18 241.557 15.034 241.081 14.742C240.605 14.45 240.237 14.048 239.977 13.536C239.721 13.02 239.593 12.426 239.593 11.754C239.593 11.078 239.725 10.484 239.989 9.972C240.253 9.456 240.623 9.056 241.099 8.772C241.575 8.484 242.131 8.34 242.767 8.34C243.415 8.34 243.977 8.486 244.453 8.778C244.929 9.07 245.297 9.472 245.557 9.984C245.817 10.496 245.947 11.086 245.947 11.754C245.947 12.43 245.815 13.026 245.551 13.542C245.291 14.054 244.923 14.456 244.447 14.748C243.971 15.036 243.411 15.18 242.767 15.18ZM242.767 13.998C243.387 13.998 243.849 13.79 244.153 13.374C244.461 12.954 244.615 12.414 244.615 11.754C244.615 11.078 244.459 10.538 244.147 10.134C243.839 9.726 243.379 9.522 242.767 9.522C242.347 9.522 242.001 9.618 241.729 9.81C241.457 9.998 241.255 10.26 241.123 10.596C240.991 10.928 240.925 11.314 240.925 11.754C240.925 12.434 241.081 12.978 241.393 13.386C241.705 13.794 242.163 13.998 242.767 13.998ZM251.814 15V11.814C251.814 11.562 251.792 11.304 251.748 11.04C251.708 10.772 251.628 10.524 251.508 10.296C251.392 10.068 251.226 9.884 251.01 9.744C250.798 9.604 250.52 9.534 250.176 9.534C249.952 9.534 249.74 9.572 249.54 9.648C249.34 9.72 249.164 9.838 249.012 10.002C248.864 10.166 248.746 10.382 248.658 10.65C248.574 10.918 248.532 11.244 248.532 11.628L247.752 11.334C247.752 10.746 247.862 10.228 248.082 9.78C248.302 9.328 248.618 8.976 249.03 8.724C249.442 8.472 249.94 8.346 250.524 8.346C250.972 8.346 251.348 8.418 251.652 8.562C251.956 8.706 252.202 8.896 252.39 9.132C252.582 9.364 252.728 9.618 252.828 9.894C252.928 10.17 252.996 10.44 253.032 10.704C253.068 10.968 253.086 11.2 253.086 11.4V15H251.814ZM247.26 15V8.52H248.382V10.392H248.532V15H247.26ZM257.127 15.174C256.339 15.174 255.697 15 255.201 14.652C254.705 14.304 254.401 13.814 254.289 13.182L255.573 12.984C255.653 13.32 255.837 13.586 256.125 13.782C256.417 13.974 256.779 14.07 257.211 14.07C257.603 14.07 257.909 13.99 258.129 13.83C258.353 13.67 258.465 13.45 258.465 13.17C258.465 13.006 258.425 12.874 258.345 12.774C258.269 12.67 258.107 12.572 257.859 12.48C257.611 12.388 257.233 12.274 256.725 12.138C256.169 11.994 255.727 11.84 255.399 11.676C255.075 11.508 254.843 11.314 254.703 11.094C254.567 10.87 254.499 10.6 254.499 10.284C254.499 9.892 254.603 9.55 254.811 9.258C255.019 8.966 255.311 8.74 255.687 8.58C256.067 8.42 256.511 8.34 257.019 8.34C257.515 8.34 257.957 8.418 258.345 8.574C258.733 8.73 259.047 8.952 259.287 9.24C259.527 9.524 259.671 9.858 259.719 10.242L258.435 10.476C258.391 10.164 258.245 9.918 257.997 9.738C257.749 9.558 257.427 9.46 257.031 9.444C256.651 9.428 256.343 9.492 256.107 9.636C255.871 9.776 255.753 9.97 255.753 10.218C255.753 10.362 255.797 10.484 255.885 10.584C255.977 10.684 256.153 10.78 256.413 10.872C256.673 10.964 257.057 11.074 257.565 11.202C258.109 11.342 258.541 11.498 258.861 11.67C259.181 11.838 259.409 12.04 259.545 12.276C259.685 12.508 259.755 12.79 259.755 13.122C259.755 13.762 259.521 14.264 259.053 14.628C258.589 14.992 257.947 15.174 257.127 15.174Z" fill="#000C14"/>
<rect x="0.75" y="0.75" width="18.5" height="18.5" rx="4.25" stroke="#000C14" stroke-width="1.5"/>
<path d="M6 9.5873L8.94737 12.4444L14 8" stroke="black" stroke-width="2" stroke-linecap="round" stroke-linejoin="round"/>
</svg>
