<svg width="28" height="27" viewBox="0 0 28 27" fill="none" xmlns="http://www.w3.org/2000/svg">
<path d="M6.60823 24.9572L6.23503 25.8172L6.60823 24.9572ZM3.22575 21.4136L2.35393 21.7583L3.22575 21.4136ZM24.7742 21.4136L25.6461 21.7583L24.7742 21.4136ZM21.3918 24.9572L21.765 25.8172L21.3918 24.9572ZM2.75 12.3306L3.68382 12.4136L3.7297 11.8972L3.31671 11.5838L2.75 12.3306ZM23.375 6.70558V5.76808H23.375L23.375 6.70558ZM14.9597 5.31694L15.6226 5.97985L14.9597 5.31694ZM17.6114 2.66529L18.2743 3.3282V3.3282L17.6114 2.66529ZM22.0308 2.66529L21.3679 3.3282V3.3282L22.0308 2.66529ZM22.3544 6.70556L22.3544 7.64306L22.8329 7.64303L23.1136 7.25557L22.3544 6.70556ZM13.2364 5.31696L12.5735 5.97987L13.2364 5.31696ZM10.5847 2.66531L9.92181 3.32822V3.32822L10.5847 2.66531ZM6.16531 2.66531L6.82822 3.32822L6.82822 3.32822L6.16531 2.66531ZM14 24.2056H14.9375H14ZM2.7094 12.2998L2.13423 13.0401H2.13423L2.7094 12.2998ZM25.1692 12.3895L24.6303 11.6223L25.1692 12.3895ZM12.125 24.5181C10.6555 24.5181 9.60255 24.5175 8.77212 24.4582C7.951 24.3995 7.41828 24.2867 6.98142 24.0972L6.23503 25.8172C6.94675 26.126 7.71635 26.2625 8.63844 26.3284C9.55121 26.3936 10.6824 26.3931 12.125 26.3931V24.5181ZM1.81254 15.6342C1.81254 17.1473 1.81207 18.327 1.87397 19.2776C1.93637 20.2359 2.06501 21.0276 2.35393 21.7583L4.09758 21.0689C3.91074 20.5964 3.80153 20.0238 3.74501 19.1558C3.68799 18.2802 3.68754 17.1718 3.68754 15.6342H1.81254ZM6.98142 24.0972C5.6863 23.5351 4.64397 22.4508 4.09758 21.0689L2.35393 21.7583C3.07621 23.5851 4.4673 25.0501 6.23503 25.8172L6.98142 24.0972ZM24.3125 15.6341C24.3125 17.1718 24.312 18.2802 24.255 19.1558C24.1985 20.0237 24.0893 20.5964 23.9024 21.0689L25.6461 21.7583C25.935 21.0276 26.0636 20.2359 26.126 19.2776C26.188 18.327 26.1875 17.1473 26.1875 15.6341H24.3125ZM15.875 26.3931C17.3176 26.3931 18.4488 26.3936 19.3616 26.3284C20.2837 26.2625 21.0533 26.126 21.765 25.8172L21.0186 24.0972C20.5817 24.2867 20.049 24.3995 19.2279 24.4582C18.3974 24.5175 17.3445 24.5181 15.875 24.5181V26.3931ZM23.9024 21.0689C23.356 22.4508 22.3137 23.5351 21.0186 24.0972L21.765 25.8172C23.5327 25.0501 24.9238 23.5851 25.6461 21.7583L23.9024 21.0689ZM3.68754 15.6342C3.68754 13.7926 3.6022 13.3322 3.68382 12.4136L1.81618 12.2476C1.72596 13.2631 1.81254 14.0268 1.81254 15.6342H3.68754ZM23.375 7.64308C24.5831 7.64308 25.5625 8.62245 25.5625 9.83058H27.4375C27.4375 7.58692 25.6187 5.76808 23.375 5.76808V7.64308ZM4.625 5.76808C2.38134 5.76808 0.5625 7.58692 0.5625 9.83058H2.4375C2.4375 8.62245 3.41688 7.64308 4.625 7.64308V5.76808ZM15.6226 5.97985L18.2743 3.3282L16.9484 2.00238L14.2968 4.65403L15.6226 5.97985ZM18.2743 3.3282C19.1285 2.47393 20.5136 2.47393 21.3679 3.3282L22.6937 2.00238C21.1072 0.415874 18.535 0.415874 16.9484 2.00238L18.2743 3.3282ZM14.2968 4.65403C13.9049 5.04597 13.3058 5.68383 13.0952 6.46015L14.9048 6.95104C14.9702 6.71008 15.2158 6.38668 15.6226 5.97985L14.2968 4.65403ZM21.3679 3.3282C22.1378 4.09814 22.2143 5.30098 21.5952 6.15554L23.1136 7.25557C24.2646 5.66672 24.1254 3.43406 22.6937 2.00238L21.3679 3.3282ZM13.8993 4.65405L11.2476 2.0024L9.92181 3.32822L12.5735 5.97987L13.8993 4.65405ZM11.2476 2.0024C9.66113 0.41589 7.0889 0.41589 5.5024 2.0024L6.82822 3.32822C7.68249 2.47395 9.06754 2.47395 9.92181 3.32822L11.2476 2.0024ZM12.5735 5.97987C12.8248 6.23121 12.9862 6.54927 13.0952 6.95104L14.9048 6.46015C14.7378 5.84463 14.4467 5.20147 13.8993 4.65405L12.5735 5.97987ZM5.5024 2.0024C4.07071 3.43408 3.93145 5.66674 5.08252 7.25559L6.60092 6.15556C5.98182 5.301 6.05828 4.09816 6.82822 3.32822L5.5024 2.0024ZM13.0625 6.7056L13.0625 24.2056H14.9375L14.9375 6.7056H13.0625ZM5.84172 7.64308L14 7.6431L14 5.7681L5.84172 5.76808L5.84172 7.64308ZM4.625 12.0181C4.11871 12.0181 3.65497 11.8472 3.28458 11.5595L2.13423 13.0401C2.82197 13.5744 3.68759 13.8931 4.625 13.8931V12.0181ZM3.28458 11.5595C2.76743 11.1577 2.4375 10.5329 2.4375 9.83058H0.5625C0.5625 11.1363 1.17959 12.2984 2.13423 13.0401L3.28458 11.5595ZM3.31671 11.5838L3.27612 11.553L2.14269 13.0466L2.18329 13.0774L3.31671 11.5838ZM15.875 24.5181H14V26.3931H15.875V24.5181ZM14 24.5181H12.125V26.3931H14V24.5181ZM13.0625 24.2056L13.0625 25.4556L14.9375 25.4556L14.9375 24.2056L13.0625 24.2056ZM23.375 12.0181H14V13.8931H23.375V12.0181ZM14 12.0181H4.625V13.8931H14V12.0181ZM25.5625 9.83058C25.5625 10.5705 25.196 11.225 24.6303 11.6223L25.7081 13.1566C26.7521 12.4233 27.4375 11.207 27.4375 9.83058H25.5625ZM24.6303 11.6223C24.2752 11.8718 23.8436 12.0181 23.375 12.0181V13.8931C24.2418 13.8931 25.0477 13.6206 25.7081 13.1566L24.6303 11.6223ZM26.1875 15.6341C26.1875 13.953 26.1881 13.2898 26.1033 12.3087L24.2352 12.4703C24.3119 13.3564 24.3125 13.9369 24.3125 15.6341H26.1875ZM14 7.6431L22.0308 7.64308L22.0308 5.76808L14 5.7681L14 7.6431ZM22.0308 7.64308L22.3544 7.64306L22.3543 5.76806L22.0307 5.76808L22.0308 7.64308ZM22.0308 7.64308L23.375 7.64308L23.375 5.76808L22.0308 5.76808L22.0308 7.64308ZM5.84172 5.76808H4.625V7.64308H5.84172V5.76808ZM4.625 7.64308L9.3125 7.64309L9.3125 5.76809L4.625 5.76808L4.625 7.64308ZM9.3125 7.64309L14 7.6431L14 5.7681L9.3125 5.76809L9.3125 7.64309ZM5.84172 7.64308L9.3125 7.64309L9.3125 5.76809L5.84172 5.76808L5.84172 7.64308ZM14 7.6431L22.3544 7.64306L22.3544 5.76806L14 5.7681L14 7.6431Z" fill="#999EA1"/>
</svg>
