<svg width="28" height="27" viewBox="0 0 28 27" fill="none" xmlns="http://www.w3.org/2000/svg">
<path d="M6.86708 4.20695C3.53356 6.62889 1.8668 7.83986 1.21217 9.62864C1.15966 9.77213 1.11242 9.9175 1.07056 10.0645C0.548757 11.8964 1.1854 13.8558 2.45869 17.7746C3.73199 21.6934 4.36863 23.6528 5.86756 24.8281C5.98781 24.9224 6.11147 25.0122 6.2383 25.0975C6.77161 25.4558 7.35945 25.6933 8.0625 25.8507V20.2746C8.0625 16.9954 10.7208 14.3371 14 14.3371C17.2792 14.3371 19.9375 16.9954 19.9375 20.2746V25.8507C20.6406 25.6933 21.2284 25.4558 21.7617 25.0975C21.8885 25.0122 22.0122 24.9224 22.1325 24.8281C23.6314 23.6528 24.268 21.6934 25.5413 17.7746C26.8146 13.8558 27.4513 11.8964 26.9294 10.0645C26.8876 9.9175 26.8404 9.77213 26.7878 9.62864C26.1332 7.83987 24.4665 6.6289 21.1329 4.20696C17.7994 1.78502 16.1327 0.574031 14.2291 0.504201C14.0764 0.4986 13.9236 0.4986 13.7709 0.504201C11.8674 0.574031 10.2006 1.78501 6.86708 4.20695Z" fill="#999EA1"/>
<path fill-rule="evenodd" clip-rule="evenodd" d="M18.0625 26.0915V20.2746C18.0625 18.0309 16.2437 16.2121 14 16.2121C11.7563 16.2121 9.9375 18.0309 9.9375 20.2746V26.0915C11.0287 26.1598 12.349 26.1598 14 26.1598C15.651 26.1598 16.9713 26.1598 18.0625 26.0915ZM14.9375 20.2746C14.9375 19.7568 14.5178 19.3371 14 19.3371C13.4822 19.3371 13.0625 19.7568 13.0625 20.2746V22.7746C13.0625 23.2923 13.4822 23.7121 14 23.7121C14.5178 23.7121 14.9375 23.2923 14.9375 22.7746V20.2746Z" fill="#999EA1"/>
</svg>
