<svg width="20" height="27" viewBox="0 0 20 27" fill="none" xmlns="http://www.w3.org/2000/svg">
<path d="M14.0625 6.5C14.0625 8.74366 12.2437 10.5625 10 10.5625V12.4375C13.2792 12.4375 15.9375 9.77919 15.9375 6.5H14.0625ZM10 10.5625C7.75634 10.5625 5.9375 8.74366 5.9375 6.5H4.0625C4.0625 9.77919 6.72081 12.4375 10 12.4375V10.5625ZM5.9375 6.5C5.9375 4.25634 7.75634 2.4375 10 2.4375V0.5625C6.72081 0.5625 4.0625 3.22081 4.0625 6.5H5.9375ZM10 2.4375C12.2437 2.4375 14.0625 4.25634 14.0625 6.5H15.9375C15.9375 3.22081 13.2792 0.5625 10 0.5625V2.4375ZM6.25 16.1875H13.75V14.3125H6.25V16.1875ZM13.75 24.3125H6.25V26.1875H13.75V24.3125ZM6.25 24.3125C4.00634 24.3125 2.1875 22.4937 2.1875 20.25H0.3125C0.3125 23.5292 2.97081 26.1875 6.25 26.1875V24.3125ZM17.8125 20.25C17.8125 22.4937 15.9937 24.3125 13.75 24.3125V26.1875C17.0292 26.1875 19.6875 23.5292 19.6875 20.25H17.8125ZM13.75 16.1875C15.9937 16.1875 17.8125 18.0063 17.8125 20.25H19.6875C19.6875 16.9708 17.0292 14.3125 13.75 14.3125V16.1875ZM6.25 14.3125C2.97081 14.3125 0.3125 16.9708 0.3125 20.25H2.1875C2.1875 18.0063 4.00634 16.1875 6.25 16.1875V14.3125Z" fill="#999EA1"/>
</svg>
