<svg width="28" height="28" viewBox="0 0 28 28" fill="none" xmlns="http://www.w3.org/2000/svg">
<path d="M4.48445 25.579L4.97429 24.7797L4.48445 25.579ZM2.42107 23.5156L3.22042 23.0258L2.42107 23.5156ZM25.5791 23.5156L24.7797 23.0258L25.5791 23.5156ZM23.5157 25.579L23.0258 24.7797L23.5157 25.579ZM23.5157 6.171L23.0258 6.97035L23.5157 6.171ZM25.5791 8.23438L24.7797 8.72423L25.5791 8.23438ZM4.48445 6.171L4.97429 6.97035L4.48445 6.171ZM2.42107 8.23438L3.22042 8.72423L2.42107 8.23438ZM22.096 2.18306L22.7726 1.5341V1.5341L22.096 2.18306ZM3.80534 2.61349L4.3714 3.36081L3.80534 2.61349ZM2.56812 3.90333L3.33727 4.43935L2.56812 3.90333ZM22.7501 5.4129H23.6876L23.6876 5.40827L22.7501 5.4129ZM21.9546 16.0171C22.4724 16.0171 22.8921 15.5973 22.8921 15.0796C22.8921 14.5618 22.4724 14.1421 21.9546 14.1421V16.0171ZM18.5455 14.1421C18.0278 14.1421 17.608 14.5618 17.608 15.0796C17.608 15.5973 18.0278 16.0171 18.5455 16.0171V14.1421ZM12.1251 6.1875H15.8751V4.3125H12.1251V6.1875ZM15.8751 25.5625H12.1251V27.4375H15.8751V25.5625ZM12.1251 25.5625C10.061 25.5625 8.57882 25.5615 7.42268 25.4516C6.28049 25.343 5.5537 25.1347 4.97429 24.7797L3.99461 26.3784C4.91813 26.9443 5.96576 27.1965 7.2452 27.3182C8.51069 27.4385 10.0973 27.4375 12.1251 27.4375V25.5625ZM0.562566 15.875C0.562566 17.9027 0.561577 19.4894 0.6819 20.7549C0.80355 22.0343 1.05578 23.0819 1.62171 24.0055L3.22042 23.0258C2.86535 22.4464 2.65708 21.7196 2.54848 20.5774C2.43856 19.4212 2.43757 17.939 2.43757 15.875H0.562566ZM4.97429 24.7797C4.25947 24.3416 3.65846 23.7406 3.22042 23.0258L1.62171 24.0055C2.21437 24.9726 3.02749 25.7857 3.99461 26.3784L4.97429 24.7797ZM15.8751 27.4375C17.9028 27.4375 19.4894 27.4385 20.7549 27.3182C22.0344 27.1965 23.082 26.9443 24.0055 26.3784L23.0258 24.7797C22.4464 25.1347 21.7196 25.343 20.5775 25.4516C19.4213 25.5615 17.9391 25.5625 15.8751 25.5625V27.4375ZM24.7797 23.0258C24.3417 23.7406 23.7407 24.3416 23.0258 24.7797L24.0055 26.3784C24.9726 25.7857 25.7858 24.9726 26.3784 24.0055L24.7797 23.0258ZM23.0258 6.97035C23.7407 7.40839 24.3417 8.0094 24.7797 8.72423L26.3784 7.74454C25.7858 6.77742 24.9726 5.9643 24.0055 5.37165L23.0258 6.97035ZM12.1251 4.3125C10.0973 4.3125 8.51069 4.31151 7.2452 4.43183C5.96576 4.55348 4.91813 4.80571 3.99461 5.37165L4.97429 6.97035C5.5537 6.61529 6.28049 6.40702 7.42268 6.29842C8.57882 6.18849 10.061 6.1875 12.1251 6.1875V4.3125ZM2.43757 15.875C2.43757 13.811 2.43856 12.3288 2.54848 11.1726C2.65708 10.0304 2.86535 9.30363 3.22042 8.72423L1.62171 7.74454C1.05578 8.66807 0.80355 9.7157 0.6819 10.9951C0.561577 12.2606 0.562566 13.8473 0.562566 15.875H2.43757ZM3.99461 5.37165C3.02749 5.9643 2.21437 6.77742 1.62171 7.74454L3.22042 8.72423C3.65846 8.0094 4.25947 7.40839 4.97429 6.97035L3.99461 5.37165ZM11.5664 2.4375H18.2773V0.5625H11.5664V2.4375ZM18.2773 2.4375C19.3594 2.4375 20.0727 2.43966 20.6017 2.51381C21.0996 2.58359 21.2933 2.70048 21.4195 2.83203L22.7726 1.5341C22.2436 0.982578 21.5824 0.757938 20.862 0.656958C20.1727 0.560339 19.3042 0.5625 18.2773 0.5625V2.4375ZM11.5664 0.5625C9.49116 0.5625 7.85624 0.561103 6.55917 0.70761C5.24214 0.85637 4.16218 1.16713 3.23928 1.86617L4.3714 3.36081C4.91856 2.94636 5.62212 2.70037 6.76961 2.57076C7.93706 2.4389 9.44765 2.4375 11.5664 2.4375V0.5625ZM2.43757 11.9945C2.43757 9.78829 2.43875 8.20586 2.56605 6.98091C2.69176 5.7713 2.93193 5.02098 3.33727 4.43935L1.79897 3.36732C1.13625 4.31827 0.842403 5.42735 0.701095 6.78709C0.561381 8.1315 0.562566 9.82838 0.562566 11.9945H2.43757ZM3.23928 1.86617C2.68514 2.2859 2.19937 2.79277 1.79897 3.36732L3.33727 4.43935C3.62675 4.02398 3.97601 3.66029 4.3714 3.36081L3.23928 1.86617ZM23.6876 5.40827C23.6834 4.56244 23.6653 3.82947 23.5594 3.22183C23.4493 2.59035 23.2318 2.01282 22.7726 1.5341L21.4195 2.83203C21.5362 2.95369 21.6414 3.13735 21.7123 3.54382C21.7873 3.97414 21.8083 4.55591 21.8126 5.41754L23.6876 5.40827ZM0.562566 11.9945C0.562566 13.2141 0.537365 14.3302 0.562887 15.2753L2.4372 15.2247C2.41251 14.3102 2.43757 13.2801 2.43757 11.9945H0.562566ZM25.875 17.5512H18.5455V19.4262H25.875V17.5512ZM14.1989 15.0796C14.1989 17.4801 16.145 19.4262 18.5455 19.4262V17.5512C17.1805 17.5512 16.0739 16.4446 16.0739 15.0796H14.1989ZM16.0739 15.0796C16.0739 13.7145 17.1805 12.608 18.5455 12.608V10.733C16.145 10.733 14.1989 12.679 14.1989 15.0796H16.0739ZM21.9546 14.1421H18.5455V16.0171H21.9546V14.1421ZM15.8751 6.1875C17.6058 6.1875 18.9312 6.1879 20.0044 6.25413C21.0767 6.32029 21.8263 6.44927 22.4172 6.67369L23.0829 4.92084C22.2328 4.59799 21.2649 4.45334 20.1199 4.38269C18.9759 4.3121 17.5843 4.3125 15.8751 4.3125V6.1875ZM22.4172 6.67369C22.6385 6.75774 22.8388 6.85575 23.0258 6.97035L24.0055 5.37165C23.7137 5.19283 23.4077 5.04417 23.0829 4.92084L22.4172 6.67369ZM21.8126 5.4129V5.79726H23.6876V5.4129H21.8126ZM18.5455 12.608H26.4306V10.733H18.5455V12.608ZM27.4376 15.875C27.4376 14.1569 27.438 12.7596 27.3663 11.612L25.4949 11.729C25.5622 12.8049 25.5626 14.135 25.5626 15.875H27.4376ZM27.3663 11.612C27.2682 10.0435 27.0309 8.80936 26.3784 7.74454L24.7797 8.72423C25.1908 9.39512 25.403 10.2588 25.4949 11.729L27.3663 11.612ZM25.5626 15.875C25.5626 16.8594 25.5625 17.7153 25.55 18.4731L27.4247 18.5042C27.4376 17.7277 27.4376 16.8549 27.4376 15.875H25.5626ZM25.55 18.4731C25.5093 20.9213 25.3293 22.1289 24.7797 23.0258L26.3784 24.0055C27.2286 22.618 27.3847 20.9141 27.4247 18.5042L25.55 18.4731ZM25.875 19.4262H26.4873V17.5512H25.875V19.4262Z" fill="#999EA1"/>
</svg>
